 <svg  version="1.0" xmlns="http://www.w3.org/2000/svg"  width="300.000000pt" height="300.000000pt" viewBox="0 0 300.000000 300.000000"  preserveAspectRatio="xMidYMid meet">  <g transform="translate(0.000000,300.000000) scale(0.100000,-0.100000)" fill="#1d9bf0" stroke="none"> <path d="M775 2225 l-25 -24 0 -306 0 -306 25 -24 24 -25 306 0 306 0 24 25 25 24 0 306 0 306 -25 24 -24 25 -306 0 -306 0 -24 -25z m595 -330 l0 -265 -265 0 -265 0 0 265 0 265 265 0 265 0 0 -265z"/> <path d="M1070 1980 l0 -50 -50 0 -50 0 0 -35 0 -35 50 0 50 0 0 -50 0 -50 35 0 35 0 0 50 0 50 50 0 50 0 0 35 0 35 -50 0 -50 0 0 50 0 50 -35 0 -35 0 0 -50z"/> <path d="M1565 2225 l-25 -24 0 -306 0 -306 25 -24 24 -25 306 0 306 0 24 25 25 24 0 306 0 306 -25 24 -24 25 -306 0 -306 0 -24 -25z m595 -330 l0 -265 -265 0 -265 0 0 265 0 265 265 0 265 0 0 -265z"/> <path d="M1760 1895 l0 -35 135 0 135 0 0 35 0 35 -135 0 -135 0 0 -35z"/> <path d="M775 1435 l-25 -24 0 -306 0 -306 25 -24 24 -25 306 0 306 0 24 25 25 24 0 306 0 306 -25 24 -24 25 -306 0 -306 0 -24 -25z m595 -330 l0 -265 -265 0 -265 0 0 265 0 265 265 0 265 0 0 -265z"/> <path d="M1005 1200 c-18 -20 -18 -21 13 -53 18 -18 32 -37 32 -42 0 -5 -14 -24 -32 -42 l-32 -33 22 -22 22 -22 33 32 c18 18 37 32 42 32 5 0 24 -14 42 -32 l33 -32 22 22 22 22 -32 33 c-18 18 -32 37 -32 42 0 5 14 24 32 42 l32 33 -22 22 -22 22 -33 -32 c-18 -18 -38 -32 -43 -32 -6 0 -23 14 -39 30 -34 36 -37 36 -60 10z"/> <path d="M1562 1438 c-9 -9 -12 -97 -12 -334 0 -322 0 -323 22 -338 19 -14 67 -16 326 -16 l303 0 24 25 25 24 0 303 c0 259 -2 307 -16 326 -15 22 -16 22 -338 22 -237 0 -325 -3 -334 -12z m598 -328 l0 -270 -270 0 -270 0 0 263 c0 145 3 267 7 270 3 4 125 7 270 7 l263 0 0 -270z"/> <path d="M1760 1165 l0 -35 135 0 135 0 0 33 0 32 -135 3 -135 3 0 -36z"/> <path d="M1760 1050 l0 -30 135 0 135 0 0 30 0 30 -135 0 -135 0 0 -30z"/> </g> </svg> 