 <svg  version="1.0" xmlns="http://www.w3.org/2000/svg"  width="300.000000pt" height="300.000000pt" viewBox="0 0 300.000000 300.000000"  preserveAspectRatio="xMidYMid meet">  <g transform="translate(0.000000,300.000000) scale(0.100000,-0.100000)" fill="#1d9bf0" stroke="none"> <path d="M1400 2619 c-215 -25 -410 -99 -550 -210 -27 -21 -53 -39 -57 -39 -10 0 -163 -153 -163 -162 0 -4 -22 -37 -50 -73 -164 -216 -237 -540 -186 -823 29 -165 99 -332 188 -449 26 -35 48 -67 48 -71 0 -9 153 -162 162 -162 4 0 35 -21 70 -48 56 -42 203 -122 225 -122 4 0 7 60 5 134 -3 149 10 231 93 567 41 165 43 178 30 215 -8 21 -14 78 -15 126 0 102 25 172 81 225 87 82 205 68 249 -30 32 -69 26 -112 -45 -345 -52 -171 -42 -226 51 -279 106 -61 277 14 346 151 43 86 58 130 72 221 22 134 10 217 -46 332 -31 65 -50 90 -92 122 -185 143 -430 146 -628 8 -107 -74 -186 -234 -186 -375 0 -85 16 -144 59 -221 30 -53 31 -58 21 -111 -14 -73 -29 -110 -45 -110 -24 0 -103 56 -133 96 -65 84 -114 232 -114 345 0 190 71 362 201 485 44 42 143 114 156 114 3 0 34 11 68 25 132 52 332 70 470 41 83 -18 203 -67 265 -109 74 -50 152 -138 193 -216 57 -107 77 -191 77 -316 0 -227 -77 -417 -223 -552 -108 -100 -194 -134 -344 -134 -98 -1 -109 1 -169 31 -35 17 -72 42 -82 54 l-17 24 -11 -47 c-54 -221 -90 -318 -166 -448 l-35 -60 71 -17 c105 -27 327 -32 444 -12 165 29 330 97 447 186 36 28 69 50 73 50 9 0 162 153 162 162 0 4 22 37 50 73 127 168 200 399 200 635 0 236 -73 467 -200 635 -28 36 -50 69 -50 73 0 9 -153 162 -162 162 -4 0 -37 22 -73 50 -71 53 -192 115 -292 149 -125 42 -322 64 -443 50z"/> </g> </svg> 