 <svg  version="1.0" xmlns="http://www.w3.org/2000/svg"  width="300.000000pt" height="300.000000pt" viewBox="0 0 300.000000 300.000000"  preserveAspectRatio="xMidYMid meet">  <g transform="translate(0.000000,300.000000) scale(0.100000,-0.100000)" fill="#1d9bf0" stroke="none"> <path d="M1417 2489 c-91 -13 -182 -63 -257 -138 -104 -105 -150 -214 -150 -356 0 -139 40 -234 144 -343 221 -231 586 -188 766 90 55 83 74 165 68 286 -4 87 -9 107 -41 174 -101 211 -306 321 -530 287z"/> <path d="M1330 1234 c-174 -22 -421 -94 -566 -165 -102 -50 -198 -134 -234 -206 -22 -44 -25 -62 -28 -205 l-4 -158 1002 0 1002 0 -4 158 c-4 189 -15 219 -112 310 -76 70 -183 126 -351 181 -197 64 -306 83 -500 86 -93 2 -186 1 -205 -1z"/> </g> </svg> 