 <svg  version="1.0" xmlns="http://www.w3.org/2000/svg"  width="300.000000pt" height="300.000000pt" viewBox="0 0 300.000000 300.000000"  preserveAspectRatio="xMidYMid meet">  <g transform="translate(0.000000,300.000000) scale(0.100000,-0.100000)" fill="#1d9bf0" stroke="none"> <path d="M1290 2115 c-5 -13 -17 -52 -25 -86 l-16 -62 42 -43 c24 -24 48 -44 53 -44 6 0 34 10 63 22 l53 22 0 67 0 67 -69 41 c-38 22 -74 41 -80 41 -7 0 -16 -11 -21 -25z m84 -66 c30 -18 36 -27 36 -55 0 -28 -5 -36 -27 -45 -52 -20 -83 19 -64 80 6 23 14 41 16 41 2 0 20 -9 39 -21z"/> <path d="M1633 2099 l-73 -41 0 -67 0 -67 53 -22 c29 -12 57 -22 63 -22 5 0 29 20 53 44 l44 44 -18 74 c-17 69 -30 99 -44 98 -3 -1 -39 -19 -78 -41z m74 -74 c9 -40 8 -46 -13 -66 -18 -17 -28 -19 -51 -12 -23 8 -29 16 -31 46 -3 33 0 38 35 56 21 11 41 20 44 21 3 0 10 -20 16 -45z"/> <path d="M1097 1878 c-43 -11 -81 -27 -84 -34 -6 -17 64 -142 87 -154 22 -12 100 -13 116 -2 13 8 54 98 54 117 0 11 -85 97 -92 94 -2 -1 -38 -10 -81 -21z m92 -61 c18 -20 20 -28 12 -50 -9 -22 -17 -27 -45 -27 -28 0 -38 6 -55 34 -12 18 -21 36 -21 39 0 6 53 24 76 26 6 1 20 -10 33 -22z"/> <path d="M1797 1852 l-47 -48 22 -54 c13 -30 28 -58 33 -62 6 -4 33 -8 60 -8 28 0 55 4 61 8 20 14 85 132 82 149 -2 11 -23 23 -59 34 -109 32 -101 33 -152 -19z m114 -23 l38 -12 -22 -38 c-19 -34 -27 -39 -58 -39 -29 0 -38 5 -48 26 -10 23 -9 30 10 50 26 28 29 28 80 13z"/> <path d="M1403 1859 c-77 -38 -124 -108 -138 -204 -4 -27 -13 -53 -19 -57 -6 -4 -43 -8 -83 -8 l-72 0 -32 -58 c-26 -48 -41 -63 -85 -86 -65 -34 -108 -81 -142 -154 -21 -46 -24 -65 -20 -126 11 -162 127 -272 312 -296 111 -15 870 -13 920 2 51 16 119 82 136 133 7 20 10 64 8 96 -3 46 -11 67 -34 96 -41 52 -105 83 -171 83 -48 0 -53 2 -53 23 0 12 -3 38 -6 57 -6 35 -5 36 40 48 57 15 58 26 8 112 l-38 65 -63 3 c-34 2 -68 -2 -75 -7 -20 -17 -36 8 -36 55 0 92 -60 186 -145 225 -57 26 -157 25 -212 -2z m195 -48 c65 -33 112 -104 112 -167 0 -21 -3 -25 -17 -19 -79 33 -220 44 -312 24 -28 -6 -54 -9 -58 -7 -20 9 18 108 53 139 59 52 155 64 222 30z m23 -217 c165 -49 251 -147 253 -289 l1 -70 80 -5 c95 -6 142 -29 167 -80 37 -73 9 -169 -62 -213 -33 -21 -49 -22 -250 -25 -118 -1 -334 1 -480 6 -258 8 -266 9 -315 34 -237 123 -193 414 73 483 45 12 75 27 92 45 101 111 289 159 441 114z m-485 -80 c-32 -28 -43 -26 -26 5 6 12 20 21 33 21 21 -1 21 -2 -7 -26z m783 -8 c26 -41 26 -52 2 -59 -14 -3 -27 7 -50 40 -17 24 -31 46 -31 48 0 3 13 5 29 5 23 0 34 -8 50 -34z"/> </g> </svg> 