 <svg  version="1.0" xmlns="http://www.w3.org/2000/svg"  width="300.000000pt" height="300.000000pt" viewBox="0 0 300.000000 300.000000"  preserveAspectRatio="xMidYMid meet">  <g transform="translate(0.000000,300.000000) scale(0.100000,-0.100000)" fill="#1d9bf0" stroke="none"> <path d="M1460 2489 c-248 -39 -440 -137 -601 -305 -195 -205 -304 -523 -270 -785 20 -156 45 -238 113 -373 116 -233 360 -429 617 -496 185 -49 364 -48 541 1 313 86 577 339 679 650 55 168 63 384 21 554 -92 372 -391 662 -766 740 -92 19 -255 26 -334 14z m130 -519 c169 -13 201 -18 300 -41 179 -41 354 -112 412 -166 49 -47 43 -117 -14 -157 -36 -25 -72 -19 -171 28 -169 81 -301 113 -564 136 -100 9 -149 8 -270 -5 -81 -9 -182 -24 -223 -34 -84 -20 -124 -15 -153 20 -41 50 -26 124 32 154 55 28 186 53 346 64 147 11 168 11 305 1z m-2 -350 c176 -19 322 -60 480 -137 51 -25 99 -54 107 -66 36 -52 -1 -137 -60 -137 -14 0 -58 16 -98 36 -284 143 -619 179 -925 100 -60 -16 -65 -16 -95 1 -57 34 -57 117 0 146 105 54 375 79 591 57z m102 -345 c166 -36 344 -118 369 -170 12 -25 12 -32 0 -54 -28 -49 -59 -49 -151 -4 -222 110 -440 135 -746 86 -117 -19 -151 -13 -166 29 -12 35 7 73 43 87 22 9 122 27 246 45 65 9 333 -3 405 -19z"/> </g> </svg> 