 <svg  version="1.0" xmlns="http://www.w3.org/2000/svg"  width="300.000000pt" height="300.000000pt" viewBox="0 0 300.000000 300.000000"  preserveAspectRatio="xMidYMid meet">  <g transform="translate(0.000000,300.000000) scale(0.100000,-0.100000)" fill="#1d93e2" stroke="none"> <path d="M1148 2990 c-317 -39 -583 -271 -679 -591 -20 -67 -23 -100 -27 -363 l-4 -288 -183 -467 c-100 -256 -199 -507 -219 -557 l-37 -90 15 -61 c74 -320 731 -573 1486 -573 582 0 1117 149 1362 378 71 66 108 124 124 195 14 59 14 63 -12 126 -14 36 -114 288 -220 559 l-194 494 0 253 c0 274 -8 348 -54 469 -90 238 -304 430 -555 498 -68 19 -109 21 -406 24 -181 1 -360 -1 -397 -6z m41 -915 c86 -21 174 -69 234 -129 35 -35 57 -49 77 -49 20 0 42 14 77 49 160 160 430 188 622 65 117 -75 164 -155 308 -521 66 -168 169 -427 228 -577 105 -266 107 -273 91 -298 -18 -27 -66 -35 -83 -12 -6 6 -113 273 -238 592 -126 319 -242 601 -259 626 -66 99 -164 151 -296 157 -108 5 -152 -7 -232 -63 -100 -72 -133 -85 -218 -85 -85 0 -117 13 -218 85 -78 56 -125 68 -232 63 -132 -6 -230 -58 -296 -157 -16 -25 -133 -307 -259 -626 -125 -319 -232 -586 -238 -592 -17 -23 -65 -15 -83 12 -16 25 -13 34 111 348 70 177 173 437 228 577 128 326 182 411 309 483 108 62 243 81 367 52z m71 -276 c107 -23 149 -91 150 -242 0 -104 -13 -147 -49 -167 -26 -13 -511 -13 -546 0 -17 6 -33 26 -46 54 -18 41 -18 49 -6 108 30 140 131 226 297 251 53 9 151 7 200 -4z m761 -12 c109 -33 197 -130 219 -239 10 -51 9 -62 -9 -103 -13 -29 -29 -49 -46 -55 -35 -13 -520 -13 -546 0 -36 20 -49 63 -49 167 1 146 38 211 137 239 59 17 227 12 294 -9z m-465 -507 c26 0 93 -71 104 -108 5 -21 10 -81 10 -134 l0 -98 -170 0 -170 0 0 103 c0 78 5 111 19 142 33 72 95 110 165 99 16 -2 35 -4 42 -4z m-88 -647 l-3 -218 -72 -3 -73 -3 0 221 0 220 75 0 75 0 -2 -217z m212 -3 l0 -221 -72 3 -73 3 -3 218 -2 217 75 0 75 0 0 -220z m-470 -55 l0 -166 -72 3 -73 3 0 130 0 129 65 33 c36 17 68 32 73 32 4 1 7 -73 7 -164z m660 132 l65 -33 0 -129 0 -130 -72 -3 -73 -3 0 166 c0 91 3 165 8 164 4 0 36 -15 72 -32z m-953 -232 c70 -49 0 -160 -76 -120 -46 23 -54 66 -20 109 23 30 63 34 96 11z m1260 -7 c38 -35 29 -89 -18 -113 -76 -40 -146 71 -76 120 30 21 67 19 94 -7z"/> </g> </svg> 